<?xml version="1.0" encoding="UTF-8"?>
<!DOCTYPE svg PUBLIC "-//W3C//DTD SVG 1.1//EN" "http://www.w3.org/Graphics/SVG/1.1/DTD/svg11.dtd">
<!-- Creator: CorelDRAW Home & Student X8 -->
<svg xmlns="http://www.w3.org/2000/svg" xml:space="preserve" width="128px" height="128px" version="1.1" style="shape-rendering:geometricPrecision; text-rendering:geometricPrecision; image-rendering:optimizeQuality; fill-rule:evenodd; clip-rule:evenodd"
viewBox="0 0 128 128"
 xmlns:xlink="http://www.w3.org/1999/xlink">
 <defs>
  <style type="text/css">
   <![CDATA[
    .str0 {stroke:black;stroke-width:2.36223}
    .fil0 {fill:none}
   ]]>
  </style>
 </defs>
 <g id="Layer_x0020_1">
  <metadata id="CorelCorpID_0Corel-Layer"/>
  <path class="fil0 str0" d="M62 24l0 -5c0,-1 -3,-1 -3,-1 0,0 -1,-5 -1,-6 0,-1 1,-3 1,-4 1,-2 3,-5 6,-5 3,0 7,0 8,3 1,3 2,4 2,5 0,4 -1,5 -3,6 -1,1 -2,1 -2,2l0 6c0,4 22,4 24,13 3,8 -4,26 -8,33 -2,3 -7,1 -6,-3 2,-8 8,-16 6,-25 0,-4 -4,-4 -9,-5l-1 35c-1,4 -4,7 -8,9l-3 3 -7 9c-5,7 -6,16 -7,25l-1 3c-1,7 -14,1 -20,-2 -1,-1 0,-3 1,-4 2,-1 5,-1 10,1 3,0 3,-9 6,-24 1,-6 4,-14 10,-19l0 -34 -16 13c-8,7 -25,-2 -28,-14 -1,-3 4,-3 7,0 3,6 16,12 21,4 7,-14 21,-15 21,-19z"/>
  <path class="fil0 str0" d="M75 74c5,8 13,14 24,16 4,0 10,-3 12,0 3,6 8,15 3,16l-3 1c-3,1 -4,-7 -7,-8 -7,1 -14,0 -25,-2 -6,-3 -8,-9 -11,-15"/>
 </g>
</svg>
